# xmcd
#
# Track frame offsets:
#	150
#	16759
#	33482
#	51531
#	63247
#	81796
#	98218
#	114688
#	126705
#	142442
#	160111
#	174174
#	191154
#	208884
#	223175
#
# Disc length: 3150 seconds
#
# Revision: 2
# Processed by: cddbd v1.4PL0 Copyright (c) Steve Scherf et al.
# Submitted via: EasyCDDAExtractor 6.0.0.1
#
DISCID=e90c4c0f
DTITLE=Gian and Giovani - Sempre Te Amei(Dimas Som)
DYEAR=2002
DGENRE=Country
TTITLE0=Sempre Te Amei-Gian and Giovani
TTITLE1=Ela Foi-Gian and Giovani
TTITLE2=Tatuagem-Gian and Giovani
TTITLE3=O Trem É Bão-Gian and Giovani
TTITLE4=O Nome Dela-Gian and Giovani
TTITLE5=Taça De Pranto-Gian and Giovani
TTITLE6=O Beijo Da Mulher Amada-Gian and Giovani
TTITLE7=Rabo De Saia-Gian and Giovani
TTITLE8=Cuidei De Mim-Gian and Giovani
TTITLE9=Sol E Lua-Gian and Giovani
TTITLE10=Peão Não Chora-Gian and Giovani
TTITLE11=Pra Conhecer Uma Mulher-Gian and Giovani
TTITLE12=Te Perdi-Gian and Giovani
TTITLE13=Abre A Janela-Gian and Giovani
TTITLE14=Camisa Manchada-Gian and Giovani
EXTD=
EXTT0=
EXTT1=
EXTT2=
EXTT3=
EXTT4=
EXTT5=
EXTT6=
EXTT7=
EXTT8=
EXTT9=
EXTT10=
EXTT11=
EXTT12=
EXTT13=
EXTT14=
PLAYORDER=
